<svg xmlns="http://www.w3.org/2000/svg" width="128" height="83.027" viewBox="0 0 128 83.027"><path d="M42.595 33.946c0.634 0.541 0.89 1.113 1.203 1.878l0.271 0.651c1.174 3.274 0.979 6.69 -0.448 9.861C42.054 49.615 39.459 51.68 36.108 52.973c-2.253 0.785 -4.848 0.882 -7.135 0.216 -0.974 -0.526 -1.692 -1.294 -2.067 -2.354 -0.307 -1.482 -0.333 -3.05 0.458 -4.377 1.313 -1.704 2.863 -2.506 4.852 -3.215q0.787 -0.285 1.574 -0.571 0.535 -0.195 1.072 -0.383c1.066 -0.382 2.008 -0.834 2.976 -1.424l-0.559 0.151c-2.153 0.562 -4.315 0.998 -6.508 1.378 -2.16 0.392 -4.352 0.891 -5.744 2.717 -0.875 1.445 -0.834 3.193 -0.447 4.799 0.149 0.451 0.322 0.893 0.501 1.333 -1.374 -0.435 -1.904 -1.384 -2.595 -2.595 -0.729 -1.606 -0.829 -3.12 -0.276 -4.799 0.812 -1.85 2.241 -2.635 4.049 -3.379 2.008 -0.665 4.029 -1.024 6.119 -1.308 4.001 -0.588 7.448 -1.389 10 -4.784z" fill="#503447"/><path d="M35.892 28.757c0.616 0.556 0.816 0.938 1.081 1.716 0 0.901 -0.314 1.255 -0.865 1.959 -2.213 1.554 -4.989 2.146 -7.568 2.811q1.459 -0.155 2.918 -0.322 0.494 -0.055 0.989 -0.108c3.691 -0.292 3.691 -0.292 6.687 -2.164 0.147 -0.649 0.201 -1.282 0.216 -1.946 0.845 0.274 1.276 0.526 1.73 1.297 0.226 0.538 0.229 0.805 0.108 1.378 -1.061 1.857 -3.099 2.562 -5.06 3.126 -1.523 0.358 -3.058 0.56 -4.608 0.765 -5.527 0.666 -5.527 0.666 -9.878 3.902 -0.714 1.124 -1.182 2.303 -1.535 3.584 -1.193 -2.147 -0.907 -5.387 -0.297 -7.689 1.058 -3.174 3.331 -5.899 6.255 -7.54 2.904 -1.418 6.786 -2.258 9.826 -0.771" fill="#503447"/><path d="M105.73 30.27h2.595c0.216 0.216 0.216 0.216 0.241 0.737l-0.003 0.683 -0.002 0.664 -0.006 0.849L108.541 35.892h5.405v2.595h-5.405q0.027 2.642 0.062 5.283 0.016 1.227 0.029 2.453 0.012 1.184 0.029 2.368 0.006 0.451 0.01 0.903c0.004 0.422 0.01 0.844 0.017 1.266l0.009 0.727c0.06 0.62 0.147 0.973 0.493 1.486 1.083 0.722 2.493 0.577 3.75 0.334 0.34 -0.098 0.674 -0.214 1.007 -0.334 0.273 0.546 0.238 0.932 0.23 1.541l-0.006 0.596L114.162 55.568c-4.193 1.069 -4.193 1.069 -6.122 -0.04 -1.083 -0.764 -1.878 -1.595 -2.228 -2.913 -0.197 -1.198 -0.135 -2.423 -0.125 -3.634l0.002 -0.91q0.003 -1.19 0.011 -2.381c0.004 -0.812 0.006 -1.623 0.009 -2.435 0.004 -1.589 0.012 -3.179 0.021 -4.768h-4.108v-2.595h4.108z" fill="#4F3446"/><path d="M82.378 25.514c0.216 0.216 0.216 0.216 0.243 0.709l-0.001 0.666 0.001 0.762 -0.002 0.843v0.882q0 1.201 -0.003 2.402c-0.001 0.836 -0.001 1.671 -0.002 2.507q-0.001 2.375 -0.005 4.751 -0.003 2.704 -0.005 5.407 -0.003 5.563 -0.011 11.126h-2.595l-0.216 -25.946 -2.162 1.73a616.865 616.865 0 0 1 -1.649 1.297l-0.408 0.32L74.595 33.73c-0.711 -0.672 -1.262 -1.301 -1.73 -2.162 4.471 -3.685 4.471 -3.685 5.576 -4.574 0.469 -0.379 0.469 -0.379 0.834 -0.757 0.918 -0.913 1.882 -0.884 3.103 -0.723" fill="#503447"/><path d="M60.541 25.514v30.054h-2.595l-0.216 -25.946 -2.811 2.378c-0.719 0.579 -1.437 1.158 -2.162 1.73 -0.683 -0.533 -1.241 -1.01 -1.73 -1.73 0.297 -0.686 0.614 -1.076 1.195 -1.543l0.462 -0.376 0.492 -0.392 0.501 -0.405q0.497 -0.403 0.996 -0.803a209.514 209.514 0 0 0 1.827 -1.494C58.032 25.729 58.297 25.514 60.541 25.514" fill="#4F3346"/><path d="M94.703 35.892h2.595v19.676h-2.595zm1.946 -9.514c0.595 0.388 0.979 0.66 1.297 1.297 0.121 0.886 0.03 1.247 -0.432 2.027 -0.762 0.666 -0.762 0.666 -1.514 0.716 -0.698 -0.058 -0.905 -0.176 -1.514 -0.595 -0.538 -0.791 -0.552 -1.209 -0.432 -2.149 0.452 -1.288 1.322 -1.429 2.595 -1.297" fill="#503447"/><path d="m21.189 40.432 0.649 0.216 -0.189 0.373C21.048 42.235 20.507 43.461 20.108 44.757c-0.388 -0.675 -0.507 -1.227 -0.568 -2l-0.049 -0.584L19.459 41.73c0.649 -0.216 0.649 -0.216 1.081 -0.216 0.481 -0.416 0.481 -0.416 0.649 -1.081" fill="#4B3142"/><path d="M75.243 29.622c0 0.786 -0.207 1.091 -0.649 1.73l-0.649 0.432c0.145 0.673 0.145 0.673 0.662 0.906L75.027 32.865l0.649 -0.649c-0.04 0.392 -0.04 0.392 -0.216 0.865 -0.554 0.378 -0.554 0.378 -1.081 0.649l-1.514 -1.946c0.755 -0.778 1.538 -1.478 2.378 -2.162" fill="#46303E"/><path d="M95.135 26.378c0.895 -0.07 1.371 -0.093 2.135 0.405 0.566 0.566 0.666 0.739 0.716 1.541 -0.041 0.649 -0.041 0.649 -0.473 1.081l0.216 -1.081 -0.432 -0.216 -0.432 -1.297h-1.946z" fill="#402E3B"/><path d="m23.135 49.297 1.081 0.649 0.216 -0.649 0.649 1.946c-0.953 -0.291 -1.39 -0.691 -1.946 -1.514z" fill="#432E3C"/><path d="M81.514 25.514c-0.649 0.432 -0.649 0.432 -1.04 0.608 -0.669 0.363 -1.195 0.841 -1.77 1.338l-0.432 -0.216a53.622 53.622 0 0 1 0.892 -0.865l0.502 -0.486c0.668 -0.458 1.057 -0.452 1.85 -0.378" fill="#432F3C"/><path d="M101.622 35.892h2.162v0.216l-1.514 0.216 -0.432 1.297h-0.216z" fill="#443340"/><path d="M37.405 40.432v0.432l-1.946 0.432c0.572 -0.845 0.893 -1.216 1.946 -0.865" fill="#473242"/><path d="M19.676 43.027h0.649c0.216 0.432 0.216 0.432 0.014 1.108L20.108 44.757c-0.382 -0.668 -0.432 -0.915 -0.432 -1.73" fill="#422E3B"/><path d="M33.514 43.243c-0.645 0.33 -1.258 0.636 -1.946 0.865v-0.649c1.216 -0.459 1.216 -0.459 1.946 -0.216" fill="#483140"/><path d="M39.351 30.703c1.011 0.319 1.011 0.319 1.365 0.892L40.865 32c-0.635 -0.162 -0.635 -0.162 -1.297 -0.432 -0.189 -0.459 -0.189 -0.459 -0.216 -0.865" fill="#45313E"/></svg>